<svg xmlns="http://www.w3.org/2000/svg" viewBox="0 0 276 70.8" width="238" height="60"><path d="M161.5 58.8l-2.7 9.1c-.3 1-.6 1.5-.8 1.7-.3.2-1.1.2-2.4.2l-2.6-8.6-2 6.7c-.3 1-.6 1.5-.8 1.7-.3.2-1 .2-2.3.2l-3.2-11c1.3 0 2 .1 2.2.2.2.2.5.7.7 1.7l1.6 6.9 2.6-8.9c1.1 0 1.8.1 2.1.2.2.2.5.7.8 1.7l2.2 7 2.2-8.9h2.4zm11.1 4.6c0 .9-.1 1.5-.3 1.6-.2.2-.9.2-2.1.2h-5.8c0 .8.3 1.5.8 2s1.3.8 2.3.8h2.4c.9 0 1.4.1 1.6.2.2.2.2.7.2 1.6h-4.1c-3.6 0-5.5-1.9-5.5-5.6 0-3.8 1.8-5.6 5.5-5.6 1.6 0 2.8.5 3.7 1.4.9.9 1.3 2 1.3 3.4zm-2.4 0c0-2-.9-3-2.8-3-1.5 0-2.3.1-2.6.4-.3.3-.4 1.1-.4 2.6h5.8zm14.9.9c0 1.7-.4 3-1.1 4-.9 1.1-2.2 1.7-4 1.7-3.7 0-5.6-1.9-5.6-5.7v-9.7c1.1 0 1.8.1 2 .2.2.2.3.7.3 1.7v3.6c.6-1 1.9-1.5 3.7-1.5 3.2 0 4.7 1.9 4.7 5.7zm-2.3 0c0-1.2-.2-2.1-.6-2.7-.5-.7-1.3-1.1-2.5-1.1-1.5 0-2.4.2-2.7.5-.3.3-.4 1.4-.4 3.3 0 1.3.2 2.2.6 2.7.5.7 1.3 1.1 2.5 1.1 1.5 0 2.4-.2 2.6-.5.4-.3.5-1.4.5-3.3zm18.8 2.4c0 .9-.4 1.6-1.1 2.2-.9.7-2.1 1-3.7 1h-4.3c0-.9.1-1.5.2-1.6.1-.2.7-.2 1.5-.2h2.5c1.4 0 2.2 0 2.4-.1.2-.1.3-.4.3-1.1 0-.6-.6-1.1-1.8-1.4-2.2-.6-3.4-.9-3.4-.9-1.2-.5-1.9-1.3-1.9-2.4-.1-2.2 1.6-3.3 4.8-3.3h3.9c0 .9-.1 1.4-.2 1.6-.1.2-.6.2-1.5.2H197c-1.3 0-2 0-2.2.1-.2.1-.3.5-.3 1.2 0 .5.6.9 1.8 1.2 1.9.4 3 .8 3.4.9 1.3.5 1.9 1.4 1.9 2.6zm11.6-3.3c0 .9-.1 1.5-.3 1.6-.2.2-.9.2-2.1.2H205c0 .8.3 1.5.8 2s1.3.8 2.3.8h2.4c.9 0 1.4.1 1.6.2.2.2.2.7.2 1.6h-4.1c-3.6 0-5.5-1.9-5.5-5.6 0-3.8 1.8-5.6 5.5-5.6 1.6 0 2.8.5 3.7 1.4.8.9 1.3 2 1.3 3.4zm-2.4 0c0-2-.9-3-2.8-3-1.5 0-2.3.1-2.6.4-.3.3-.4 1.1-.4 2.6h5.8zm9.9-4.7c0 1-.1 1.6-.2 1.7-.1.2-.5.2-1.3.2-.9 0-1.5.2-1.7.6-.2.3-.2 1.1-.2 2.5v6.1c-1.1 0-1.8-.1-2-.2-.2-.2-.3-.7-.3-1.7v-9.1c.9 0 1.4.1 1.5.2.1.1.2.6.2 1.3.7-1.1 2-1.6 4-1.6zm12.1.1l-3.9 9.1c-.4 1-.8 1.5-1.1 1.7-.3.2-1.1.2-2.4.2l-4.5-11c1.3 0 2 .1 2.3.2.3.2.6.7.9 1.7l2.6 7.1 3.4-9.1h2.7zm3.8-2.6c0 .9-.5 1.4-1.6 1.4s-1.7-.5-1.7-1.4c0-.9.6-1.4 1.7-1.4s1.6.4 1.6 1.4zm-.5 13.6c-1.1 0-1.8-.1-2-.2-.2-.2-.3-.7-.3-1.7v-9.1c1.1 0 1.8.1 2 .2.2.2.3.7.3 1.7v9.1zm10.6.1h-3.3c-3.7 0-5.5-1.8-5.5-5.5s1.8-5.5 5.4-5.5h3.4c0 .9-.1 1.5-.2 1.6-.1.2-.6.2-1.5.2h-1.7c-1.2 0-1.9 0-2.2.1-.4.1-.7.4-.8.9-.1.4-.1 1.2-.1 2.6 0 2.5 1 3.7 3.1 3.7h1.6c.9 0 1.4.1 1.6.2.1.2.2.7.2 1.7zm11.5-6.5c0 .9-.1 1.5-.3 1.6-.2.2-.9.2-2.1.2H250c0 .8.3 1.5.8 2s1.3.8 2.3.8h2.4c.9 0 1.4.1 1.6.2.2.2.2.7.2 1.6h-4.1c-3.6 0-5.5-1.9-5.5-5.6 0-3.8 1.8-5.6 5.5-5.6 1.6 0 2.8.5 3.7 1.4.9.9 1.3 2 1.3 3.4zm-2.3 0c0-2-.9-3-2.8-3-1.5 0-2.3.1-2.6.4-.3.3-.4 1.1-.4 2.6h5.8zm13 3.3c0 .9-.4 1.6-1.1 2.2-.9.7-2.1 1-3.7 1h-4.3c0-.9.1-1.5.2-1.6.1-.2.7-.2 1.5-.2h2.5c1.4 0 2.2 0 2.4-.1.2-.1.3-.4.3-1.1 0-.6-.6-1.1-1.8-1.4-2.2-.6-3.4-.9-3.4-.9-1.2-.5-1.9-1.3-1.9-2.4-.1-2.2 1.6-3.3 4.8-3.3h3.9c0 .9-.1 1.4-.2 1.6-.1.2-.6.2-1.5.2h-2.3c-1.3 0-2 0-2.2.1-.2.1-.3.5-.3 1.2 0 .5.6.9 1.8 1.2 1.9.4 3 .8 3.4.9 1.3.5 1.9 1.4 1.9 2.6z" fill="#fff"/><path fill="none" d="M33.2 31.7h-4.4c-1.8 0-3.2.1-4.3.2-1.1.1-1.8.3-2.1.5-.3.2-.7.7-.9 1.5-.3.8-.5 1.8-.8 3.1-.3 1.5.1 2.6 1.2 3.4 1 .7 2.7 1.1 5 1.1 2.2 0 4-.1 5.4-.3 1.3-.2 2.2-.5 2.7-.8.4-.4.9-1.2 1.3-2.4.4-1.3.8-3 1.2-5.1l.1-.5.1-.5h-4.5z"/><path fill="#fff" d="M53.6 10.5c-3.7-4.3-10.2-6.6-19.3-6.8-9.1-.2-16.4 2-21.9 6.5-5.5 4.4-9.2 11.3-11 20.4C.6 35 .3 38.8.6 42.1c.3 3.3 1.2 6 2.7 8.2 1.9 2.8 4.7 4.9 8.6 6.3 3.9 1.4 8.8 2.2 14.8 2.3l6 .1 6 .1c.3-1.4.5-2.6.5-3.4.1-.8 0-1.4-.2-1.6-.2-.2-.6-.4-1.3-.6-.7-.1-1.7-.2-3-.2l-3.4-.1-3.4-.1c-4.6-.1-8.4-.7-11.4-1.8s-5.3-2.7-6.7-4.7c-1.2-1.7-2-3.9-2.2-6.5-.3-2.6 0-5.8.7-9.3.8-3.8 1.5-7 2.1-9.5.6-2.5 1.2-4.4 1.8-5.6.7-1.5 1.6-2.7 2.8-3.7 1.1-.9 2.4-1.6 4-2 1.2-.3 3-.5 5.4-.6 2.4-.1 5.4-.1 9.1-.1 3.6.2 6.8.7 9.5 1.7 2.6 1 4.6 2.5 5.9 4.4 1 1.6 1.6 3.6 1.9 5.9.2 2.4 0 5.1-.6 8.2-.6 2.9-1.1 5.2-1.6 6.8-.5 1.7-.9 2.7-1.4 3.2-.4.5-1.2.8-2.4 1-.7.1-1.5.2-2.3.2-1.4 0-3.4 5.2-.9 5.4 5.7-.2 8.6-2.7 10.1-4.5 1.1-1.3 2.2-2.9 3-4.9.9-2 1.5-4.4 2.1-7.1 1.5-8.4.5-14.8-3.2-19.1z"/><linearGradient id="a" gradientUnits="userSpaceOnUse" x1="13.877" y1="20.645" x2="44.972" y2="20.645"><stop offset="0" stop-color="#fff"/><stop offset=".141" stop-color="#fff"/><stop offset=".433" stop-color="#fff"/><stop offset=".722" stop-color="#fff"/><stop offset="1" stop-color="#fff"/></linearGradient><path fill="url(#a)" d="M31.1 20.3c1.5 0 2.8.1 3.8.4.4.1.7.2 1.1.3-.3-.1-.7-.2-1.1-.3-1-.3-2.3-.4-3.8-.4z"/><linearGradient id="b" gradientUnits="userSpaceOnUse" x1="13.877" y1="22.708" x2="44.972" y2="22.708"><stop offset="0" stop-color="#fff"/><stop offset=".141" stop-color="#fff"/><stop offset=".433" stop-color="#fff"/><stop offset=".722" stop-color="#fff"/><stop offset="1" stop-color="#fff"/></linearGradient><path fill="url(#b)" d="M37.4 21.7c.6.5 1 1.1 1.2 1.9-.3-.7-.6-1.4-1.2-1.9z"/><linearGradient id="c" gradientUnits="userSpaceOnUse" x1="13.881" y1="41.927" x2="44.971" y2="41.927"><stop offset="0" stop-color="#fff"/><stop offset=".141" stop-color="#fff"/><stop offset=".433" stop-color="#fff"/><stop offset=".722" stop-color="#fff"/><stop offset="1" stop-color="#fff"/></linearGradient><path fill="url(#c)" d="M37.4 41.5c0 .3-.1.5-.1.8 0-.2.1-.5.1-.8z"/><linearGradient id="d" gradientUnits="userSpaceOnUse" x1="13.878" y1="19.899" x2="44.972" y2="19.899"><stop offset="0" stop-color="#fff"/><stop offset=".141" stop-color="#fff"/><stop offset=".433" stop-color="#fff"/><stop offset=".722" stop-color="#fff"/><stop offset="1" stop-color="#fff"/></linearGradient><path fill="url(#d)" d="M22 20.1c-.7-.1-1.1-.3-1.3-.5.2.3.6.4 1.3.5z"/><linearGradient id="e" gradientUnits="userSpaceOnUse" x1="13.878" y1="17.299" x2="44.972" y2="17.299"><stop offset="0" stop-color="#fff"/><stop offset=".141" stop-color="#fff"/><stop offset=".433" stop-color="#fff"/><stop offset=".722" stop-color="#fff"/><stop offset="1" stop-color="#fff"/></linearGradient><path fill="url(#e)" d="M43.3 18.6c-.9-1.2-2.3-2.1-4.3-2.7 2 .7 3.4 1.5 4.3 2.7z"/><linearGradient id="f" gradientUnits="userSpaceOnUse" x1="13.878" y1="20.586" x2="44.972" y2="20.586"><stop offset="0" stop-color="#fff"/><stop offset=".141" stop-color="#fff"/><stop offset=".433" stop-color="#fff"/><stop offset=".722" stop-color="#fff"/><stop offset="1" stop-color="#fff"/></linearGradient><path fill="url(#f)" d="M43.3 18.6c.8 1 1.3 2.3 1.5 3.9-.1-1.6-.7-2.9-1.5-3.9z"/><linearGradient id="g" gradientUnits="userSpaceOnUse" x1="13.877" y1="41.73" x2="44.972" y2="41.73"><stop offset="0" stop-color="#fff"/><stop offset=".141" stop-color="#fff"/><stop offset=".433" stop-color="#fff"/><stop offset=".722" stop-color="#fff"/><stop offset="1" stop-color="#fff"/></linearGradient><path fill="url(#g)" d="M43 37.2l-1.6 9.1 1-5.4z"/><path fill="#fff" d="M33.6 26.6h-4.9c-2.2 0-4.1.2-5.9.7-1.7.5-3.2 1.2-4.5 2.2-1.2.9-2.1 2-2.8 3.2-.7 1.2-1.2 2.6-1.5 4.1-.3 1.5-.2 2.9.2 4.1.4 1.2 1.1 2.2 2.1 3 1 .8 2.1 1.3 3.5 1.7 1.4.4 2.9.6 4.7.6 1.5 0 2.9-.1 4.3-.4 1.4-.3 2.7-.7 3.9-1.2 1.1-.5 2-1 2.8-1.5.8-.6 1.4-1.2 2-1.8 0 0 4.6-14.7.9-14.7h-4.8zm3.9 6.1c-.4 2.1-.8 3.9-1.2 5.1-.4 1.3-.8 2.1-1.3 2.4-.4.4-1.3.6-2.7.8-1.3.2-3.1.3-5.4.3-2.3 0-4-.4-5-1.1-1-.7-1.4-1.9-1.2-3.4.2-1.3.5-2.3.8-3.1.3-.8.6-1.2.9-1.5.3-.2 1-.4 2.1-.5 1.1-.1 2.5-.2 4.3-.2h8.8l-.1.5v.7z"/><linearGradient id="h" gradientUnits="userSpaceOnUse" x1="13.877" y1="46.158" x2="44.972" y2="46.158"><stop offset="0" stop-color="#fff"/><stop offset=".141" stop-color="#fff"/><stop offset=".433" stop-color="#fff"/><stop offset=".722" stop-color="#fff"/><stop offset="1" stop-color="#fff"/></linearGradient><path fill="url(#h)" d="M38 46c.2 0 .3.1.6.1.5.1 1.2.1 1.9.1-.8 0-1.4-.1-1.9-.1-.2 0-.4 0-.6-.1z"/><linearGradient id="i" gradientUnits="userSpaceOnUse" x1="44.923" y1="57.843" x2="33.194" y2="2.663"><stop offset="0" stop-color="#fff"/><stop offset=".096" stop-color="#fff"/><stop offset=".248" stop-color="#fff"/><stop offset=".435" stop-color="#fff"/><stop offset=".515" stop-color="#fff"/><stop offset=".554" stop-color="#fff"/><stop offset=".646" stop-color="#fff"/><stop offset=".745" stop-color="#fff"/><stop offset=".855" stop-color="#fff"/><stop offset="1" stop-color="#fff"/></linearGradient><path fill="url(#i)" d="M41.4 46.3l1-5.4z"/><linearGradient id="j" gradientUnits="userSpaceOnUse" x1="13.877" y1="43.602" x2="44.972" y2="43.602"><stop offset="0" stop-color="#fff"/><stop offset=".141" stop-color="#fff"/><stop offset=".433" stop-color="#fff"/><stop offset=".722" stop-color="#fff"/><stop offset="1" stop-color="#fff"/></linearGradient><path fill="url(#j)" d="M41.4 46.3l1-5.4z"/><linearGradient id="k" gradientUnits="userSpaceOnUse" x1="15.493" y1="41.259" x2="21.669" y2="12.205"><stop offset="0" stop-color="#fff"/><stop offset=".528" stop-color="#fff"/><stop offset="1" stop-color="#fff"/></linearGradient><path fill="url(#k)" d="M20.5 18.2c0-.8.2-1.8.4-3.1-.2 1.3-.3 2.3-.4 3.1z"/><linearGradient id="l" gradientUnits="userSpaceOnUse" x1="37.281" y1="45.884" x2="43.457" y2="16.83"><stop offset="0" stop-color="#fff"/><stop offset=".528" stop-color="#fff"/><stop offset="1" stop-color="#fff"/></linearGradient><path fill="url(#l)" d="M37.1 44.4c0-.5.1-1.2.2-2.1-.1.8-.2 1.5-.2 2.1 0 .7 0 1.1.2 1.3.1.1.4.3.7.3-.4-.1-.6-.2-.7-.3-.2-.2-.2-.7-.2-1.3z"/><linearGradient id="m" gradientUnits="userSpaceOnUse" x1="29.36" y1="44.191" x2="35.534" y2="15.147"><stop offset="0" stop-color="#fff"/><stop offset=".528" stop-color="#fff"/><stop offset="1" stop-color="#fff"/></linearGradient><path fill="url(#m)" d="M31.8 15.1c2.9 0 5.3.3 7.2.9-1.8-.6-4.3-.9-7.2-.9z"/><linearGradient id="n" gradientUnits="userSpaceOnUse" x1="31.724" y1="44.699" x2="37.898" y2="15.65"><stop offset="0" stop-color="#fff"/><stop offset=".528" stop-color="#fff"/><stop offset="1" stop-color="#fff"/></linearGradient><path fill="url(#n)" d="M37.4 21.7c-.4-.3-.9-.5-1.4-.7.5.2 1 .4 1.4.7z"/><path fill="#fff" d="M44.6 28.3c.4-2.2.5-4.2.3-5.8-.2-1.6-.7-2.9-1.5-3.9-.9-1.2-2.3-2.1-4.3-2.7-1.9-.6-4.3-.9-7.2-.9h-11c-.2 1.3-.4 2.4-.4 3.1 0 .8 0 1.3.2 1.5.2.2.6.4 1.3.5.7.1 1.6.2 2.8.2h6.4c1.5 0 2.8.1 3.8.4.4.1.7.2 1.1.3.5.2 1 .5 1.4.8.6.5 1 1.1 1.2 1.9.2.8.2 1.8 0 2.9h-.2l-.9 14.7v.3c0 .2-.1.5-.1.7-.1.8-.2 1.6-.2 2.1 0 .7.1 1.1.2 1.3.1.1.4.3.7.3.2 0 .3.1.6.1.5.1 1.2.1 1.9.1h.9l1.6-9.1 1.4-8.8zm49.6 2.5C93.3 36 91.4 40 88.6 43c-3.3 3.5-7.7 5.2-13.2 5.2-11.5 0-16.2-5.8-14.1-17.5l5.3-30c3.5 0 5.5.2 6 .7.5.5.5 2.2-.1 5.2l-2 11.1C73 14.6 77.1 13 82.9 13c9.6.2 13.4 6.1 11.3 17.8zm-7.1 0c.7-3.8.5-6.5-.4-8.3-1.1-2.2-3.4-3.2-7.1-3.2-4.7 0-7.5.5-8.5 1.5s-2 4.3-3 10.1c-.7 3.9-.6 6.7.3 8.5 1.1 2.2 3.4 3.2 7.2 3.2 4.7 0 7.5-.5 8.4-1.5 1.1-1 2-4.4 3.1-10.3zm38.6 7.3c-.5 2.8-2.1 5-4.7 6.8-3 2.1-7 3.1-12 3.1H95.6c.5-2.9 1-4.6 1.6-5 .5-.5 2.1-.7 4.9-.7h7.8c4.3 0 6.7-.1 7.3-.3.6-.2 1.1-1.4 1.5-3.4.4-2-1.3-3.4-4.8-4.3-6.6-1.8-9.9-2.7-10-2.7-3.6-1.6-5.1-4-4.5-7.5 1-6.8 6.6-10.2 16.7-10.2h12.1c-.5 2.8-1 4.5-1.5 5s-2.1.7-4.7.7h-7.2c-4 0-6.2.1-6.7.3-.7.3-1.3 1.6-1.7 3.8-.3 1.6 1.4 2.8 5 3.7 5.6 1.4 9 2.3 10 2.8 3.5 1.7 5 4.3 4.3 7.9zm38.5-7.2c-2.1 11.6-8.7 17.5-20.1 17.5-11.2 0-15.8-5.8-13.7-17.5 2-11.6 8.7-17.4 20-17.4 11.2 0 15.8 5.8 13.8 17.4zm-7.2 0c.6-3.7.5-6.4-.4-8.2-1.1-2.3-3.5-3.4-7.2-3.4-4.8 0-7.7.5-8.7 1.5-1 1-2 4.3-3 10.1-1.4 7.8 1.1 11.6 7.5 11.6 4.9 0 7.8-.5 8.8-1.5.9-.9 1.9-4.3 3-10.1zm16.9 17c-3.6 0-5.6-.3-6.1-.8s-.5-2.3.1-5.3l7.2-41c3.5 0 5.6.2 6.1.7.5.5.5 2.2 0 5.1l-7.3 41.3zm37.8 0c-2.7 0-4.3-.2-4.6-.6-.4-.4-.3-1.8.1-4.3-2.5 3.6-6.9 5.3-13.4 5.3-5.3 0-8.7-1.4-10.2-4.3-1.2-2.4-1.4-6.2-.5-11.6l3.3-18.6c3.5 0 5.5.2 6 .7.5.5.5 2.3-.1 5.4L189.9 33c-.6 3.3-.5 5.6.3 6.9.9 1.6 3.1 2.4 6.6 2.4 4.4 0 7-.4 7.9-1.2.9-.8 1.7-3.6 2.6-8.4l3.3-18.9c3.5 0 5.6.2 6.1.7.5.5.5 2.3-.1 5.4l-4.9 28zm31.1-34.1c-.5 2.9-1 4.6-1.6 5.1-.6.5-2.3.7-5.2.7h-3.3l-3.3 18.5c-.5 2.7.4 4.1 2.6 4.1 2.7 0 4.3.3 4.6.8.4.5.3 2.2-.3 5.2-1.1.1-2.2.1-3.1.1-4.5 0-7.7-.8-9.4-2.4-1.7-1.6-2.3-4.2-1.7-7.8l3.2-18.4h-4.6l.8-4.2c2.4 0 3.8-.2 4.2-.5.3-.3.7-1.6 1.1-3.7l1.1-6.1h7.1l-1.5 8.6h9.3zm32.4 14.3c-.5 2.8-1.1 4.5-1.8 5s-2.9.7-6.5.7h-17.8c-.5 2.6 0 4.7 1.4 6.2 1.4 1.6 3.6 2.3 6.6 2.3h7.5c2.8 0 4.4.2 4.7.7.4.5.3 2.2-.2 5h-12.8c-11.3 0-15.9-5.7-13.9-17.2 2-11.6 8.8-17.4 20.1-17.4 4.9 0 8.5 1.4 10.7 4.2 2.1 2.7 2.8 6.1 2 10.5zm-7.3 0c.1-.1.1-.2 0-.2 1.2-6-1.2-9-7-9-4.5 0-7.3.4-8.2 1.2-.9.8-1.8 3.4-2.6 8h17.8z"/></svg>